<svg width="50" height="50" viewBox="0 0 50 50" fill="none" xmlns="http://www.w3.org/2000/svg">
<path fill-rule="evenodd" clip-rule="evenodd" d="M37.0728 3.10625C33.4932 1.12691 29.3774 0 25 0C11.2 0 0 11.2 0 25C0 38.8 11.2 50 25 50C38.8 50 50 38.8 50 25C50 20.6523 48.8883 16.5626 46.9339 13H44.0303L44.0129 17.03C44.0112 17.4267 43.9325 17.8051 43.7912 18.151C44.5731 20.2886 45 22.5956 45 25C45 29.55 43.45 33.725 40.9 37.075C37.325 32.725 28.65 31.25 25 31.25C21.35 31.25 12.675 32.725 9.1 37.075C6.55 33.725 5 29.55 5 25C5 13.975 13.975 5 25 5C27.4141 5 29.7298 5.4303 31.8746 6.21821C32.2222 6.07749 32.602 6 33 6H37.0604L37.0728 3.10625ZM12.6749 40.7C13.7499 38.45 20.2999 36.25 24.9999 36.25C29.6999 36.25 36.2749 38.45 37.3249 40.7C33.9249 43.4 29.6499 45 24.9999 45C20.3499 45 16.0749 43.4 12.6749 40.7ZM25 10C20.15 10 16.25 13.9 16.25 18.75C16.25 23.6 20.15 27.5 25 27.5C29.85 27.5 33.75 23.6 33.75 18.75C33.75 13.9 29.85 10 25 10ZM21.25 18.75C21.25 20.825 22.925 22.5 25 22.5C27.075 22.5 28.75 20.825 28.75 18.75C28.75 16.675 27.075 15 25 15C22.925 15 21.25 16.675 21.25 18.75Z" fill="black" fill-opacity="0.54"/>
<rect x="31" y="7.01071" width="19" height="5" rx="2" fill="#C4C4C4"/>
<rect x="43.041" y="0.0215759" width="19" height="5" rx="2" transform="rotate(90.2471 43.041 0.0215759)" fill="#C4C4C4"/>
</svg>
