<svg width="320" height="64" viewBox="0 0 320 64" fill="none" xmlns="http://www.w3.org/2000/svg">
<g filter="url(#filter0_d)">
<path d="M128.41 17.1726L176.146 21.0905L220.84 29.8197L248.452 35.0435L274.75 41.9856L313 56.2136H7L45.25 41.9856L94.9483 33.1189L119.284 30.3696L130.048 25.6957L131.452 23.4962L96.1183 15.523L98.4583 14.1483L145.024 7L119.284 15.2481L128.41 17.1726Z" fill="white"/>
</g>
<path d="M207.268 20.6781L213.477 12.9249L231.558 9.479L237.22 17.4476L233.202 35.323L219.202 34.2233L208.906 28.1747L207.268 20.6781Z" fill="#C4C4C4"/>
<path d="M207.268 20.6781L213.477 12.9249L231.558 9.479L237.22 17.4476L233.202 35.323L219.202 34.2233L208.906 28.1747L207.268 20.6781Z" fill="url(#paint0_linear)"/>
<path d="M227.9 30.7305V21.1652L236.066 17.687L243.578 25.6601L241.94 34.1831L231.37 35.7123L227.9 30.7305Z" fill="#999999"/>
<path d="M227.9 30.7305V21.1652L236.066 17.687L243.578 25.6601L241.94 34.1831L231.37 35.7123L227.9 30.7305Z" fill="url(#paint1_linear)"/>
<path d="M102.67 30.1372L103.626 22.5313L108.988 20.197L113.922 25.5479L113.668 31.5119L110.158 33.1615L105.478 33.7114L102.67 30.1372Z" fill="url(#paint2_linear)"/>
<path d="M98.8604 32.9493L97.9902 25.1458L103.88 22.9463L106.18 26.1677L105.244 32.844L103.372 33.6688L98.8604 32.9493Z" fill="url(#paint3_linear)"/>
<path d="M38.6242 43.228L36.5547 35.7966L25.3992 26.727L18.1967 34.7685L16.7927 49.6151L18.8987 51.8146L35.5197 47.537L38.6242 43.228Z" fill="url(#paint4_linear)"/>
<path d="M41.8306 35.0984L44.6443 31.6342L52.8371 30.0946L55.4025 33.655L53.5819 41.6419L47.2381 41.1505L42.5728 38.448L41.8306 35.0984Z" fill="url(#paint5_linear)"/>
<path d="M47.2419 41.5366L45.9768 35.3795L37.8359 28.3732L33.1786 31.3449L31.0011 42.6703L38.1825 45.9441L44.6849 45.3602L47.2419 41.5366Z" fill="url(#paint6_linear)"/>
<path d="M50.5199 45.4868L49.3363 41.2367L42.9564 36.0497L39.5711 37.8252L38.3651 45.407L43.8829 48.0075L48.7444 47.9511L50.5199 45.4868Z" fill="url(#paint7_linear)"/>
<path d="M50.5199 45.4868L49.3363 41.2367L42.9564 36.0497L39.5711 37.8252L38.3651 45.407L43.8829 48.0075L48.7444 47.9511L50.5199 45.4868Z" fill="url(#paint8_linear)"/>
<path d="M36.9819 43.6597L33.9122 39.9316L24.9737 38.2747L22.1748 42.1063L24.1611 50.7015L31.0822 50.1727L36.1722 47.2643L36.9819 43.6597Z" fill="url(#paint9_linear)"/>
<path d="M99.9377 33.8441L99.9246 31.312L97.3017 27.7104L95.2579 28.3665L93.5288 32.5401L96.0689 34.5859L98.6449 35.0574L99.9377 33.8441Z" fill="url(#paint10_linear)"/>
<path d="M95.2887 33.0874L95.1589 31.3062L93.0797 28.6019L91.6241 28.9291L90.5645 31.7502L92.5095 33.3552L94.4059 33.8557L95.2887 33.0874Z" fill="url(#paint11_linear)"/>
<path d="M93.5371 33.2316L92.6326 31.4509L89.2829 29.8455L87.8954 31.036L87.9994 34.5945L90.7341 35.1324L92.9414 34.5475L93.5371 33.2316Z" fill="url(#paint12_linear)"/>
<path d="M199.955 12.4987L202.354 23.4962L196.738 22.9823L199.955 12.4987Z" fill="url(#paint13_linear)"/>
<path d="M202.763 14.1483L205.162 24.5959L199.546 24.1077L202.763 14.1483Z" fill="url(#paint14_linear)"/>
<path d="M297.44 24.5959L302.038 45.4911L291.274 44.5147L297.44 24.5959Z" fill="url(#paint15_linear)"/>
<path d="M267.352 16.3478L271.149 35.5933L262.257 34.694L267.352 16.3478Z" fill="url(#paint16_linear)"/>
<path d="M273.78 9.19946L281.502 39.4424L265.066 37.2429L273.78 9.19946Z" fill="url(#paint17_linear)"/>
<path d="M282.671 12.4987L288.699 44.3913L273.957 40.5422L282.671 12.4987Z" fill="url(#paint18_linear)"/>
<path d="M292.031 18.5473L298.527 47.9655L284.253 45.2161L292.031 18.5473Z" fill="url(#paint19_linear)"/>
<defs>
<filter id="filter0_d" x="0" y="0" width="320" height="63.2136" filterUnits="userSpaceOnUse" color-interpolation-filters="sRGB">
<feFlood flood-opacity="0" result="BackgroundImageFix"/>
<feColorMatrix in="SourceAlpha" type="matrix" values="0 0 0 0 0 0 0 0 0 0 0 0 0 0 0 0 0 0 127 0"/>
<feOffset/>
<feGaussianBlur stdDeviation="3.5"/>
<feColorMatrix type="matrix" values="0 0 0 0 1 0 0 0 0 1 0 0 0 0 1 0 0 0 1 0"/>
<feBlend mode="normal" in2="BackgroundImageFix" result="effect1_dropShadow"/>
<feBlend mode="normal" in="SourceGraphic" in2="effect1_dropShadow" result="shape"/>
</filter>
<linearGradient id="paint0_linear" x1="224.457" y1="18" x2="218.785" y2="32.9634" gradientUnits="userSpaceOnUse">
<stop stop-color="#777777"/>
<stop offset="1" stop-color="#E3E3E3"/>
</linearGradient>
<linearGradient id="paint1_linear" x1="235.947" y1="27" x2="234.207" y2="34.8979" gradientUnits="userSpaceOnUse">
<stop stop-color="#999999"/>
<stop offset="1" stop-color="#E9E9E9"/>
</linearGradient>
<linearGradient id="paint2_linear" x1="109.222" y1="30.3696" x2="98.5579" y2="22.4408" gradientUnits="userSpaceOnUse">
<stop stop-color="#999999"/>
<stop offset="1" stop-color="white"/>
</linearGradient>
<linearGradient id="paint3_linear" x1="104.542" y1="31.7443" x2="98.6501" y2="28.3654" gradientUnits="userSpaceOnUse">
<stop stop-color="#777777"/>
<stop offset="1" stop-color="#C4C4C4"/>
</linearGradient>
<linearGradient id="paint4_linear" x1="28.157" y1="38.7231" x2="19.1313" y2="29.4423" gradientUnits="userSpaceOnUse">
<stop stop-color="#269F56"/>
<stop offset="1" stop-color="#8CE1AE"/>
</linearGradient>
<linearGradient id="paint5_linear" x1="50.4885" y1="38.0678" x2="42.8442" y2="31.2108" gradientUnits="userSpaceOnUse">
<stop stop-color="#269F56"/>
<stop offset="1" stop-color="#8CE1AE"/>
</linearGradient>
<linearGradient id="paint6_linear" x1="39.4324" y1="38.3466" x2="32.2524" y2="31.7755" gradientUnits="userSpaceOnUse">
<stop stop-color="#269F56"/>
<stop offset="1" stop-color="#8CE1AE"/>
</linearGradient>
<linearGradient id="paint7_linear" x1="44.5336" y1="42.9104" x2="39.3717" y2="37.6026" gradientUnits="userSpaceOnUse">
<stop stop-color="#269F56"/>
<stop offset="1" stop-color="#8CE1AE"/>
</linearGradient>
<linearGradient id="paint8_linear" x1="47.4274" y1="48" x2="45.1354" y2="40.6848" gradientUnits="userSpaceOnUse">
<stop stop-color="white"/>
<stop offset="1" stop-color="white" stop-opacity="0"/>
</linearGradient>
<linearGradient id="paint9_linear" x1="32.4334" y1="46.3102" x2="23.8908" y2="39.8919" gradientUnits="userSpaceOnUse">
<stop stop-color="#269F56"/>
<stop offset="1" stop-color="#8CE1AE"/>
</linearGradient>
<linearGradient id="paint10_linear" x1="97.1467" y1="31.7634" x2="94.8999" y2="28.4104" gradientUnits="userSpaceOnUse">
<stop stop-color="#269F56"/>
<stop offset="1" stop-color="#8CE1AE"/>
</linearGradient>
<linearGradient id="paint11_linear" x1="92.8424" y1="30.3696" x2="91.7435" y2="28.7393" gradientUnits="userSpaceOnUse">
<stop stop-color="#269F56"/>
<stop offset="1" stop-color="#8CE1AE"/>
</linearGradient>
<linearGradient id="paint12_linear" x1="91.9063" y1="33.6688" x2="88.7336" y2="30.4523" gradientUnits="userSpaceOnUse">
<stop stop-color="#269F56"/>
<stop offset="1" stop-color="#8CE1AE"/>
</linearGradient>
<linearGradient id="paint13_linear" x1="197.536" y1="12.7043" x2="202.849" y2="21.7315" gradientUnits="userSpaceOnUse">
<stop stop-color="#139959"/>
<stop offset="1" stop-color="#00361C"/>
</linearGradient>
<linearGradient id="paint14_linear" x1="200.344" y1="14.3436" x2="205.262" y2="23.1401" gradientUnits="userSpaceOnUse">
<stop stop-color="#139959"/>
<stop offset="1" stop-color="#00361C"/>
</linearGradient>
<linearGradient id="paint15_linear" x1="292.804" y1="24.9865" x2="302.855" y2="42.215" gradientUnits="userSpaceOnUse">
<stop stop-color="#139959"/>
<stop offset="1" stop-color="#00361C"/>
</linearGradient>
<linearGradient id="paint16_linear" x1="263.521" y1="16.7075" x2="273.243" y2="31.6531" gradientUnits="userSpaceOnUse">
<stop stop-color="#139959"/>
<stop offset="1" stop-color="#00361C"/>
</linearGradient>
<linearGradient id="paint17_linear" x1="267.228" y1="9.74934" x2="281.353" y2="34.0501" gradientUnits="userSpaceOnUse">
<stop stop-color="#139959"/>
<stop offset="1" stop-color="#00361C"/>
</linearGradient>
<linearGradient id="paint18_linear" x1="276.119" y1="13.0486" x2="290.245" y2="37.3494" gradientUnits="userSpaceOnUse">
<stop stop-color="#139959"/>
<stop offset="1" stop-color="#00361C"/>
</linearGradient>
<linearGradient id="paint19_linear" x1="285.479" y1="19.0972" x2="299.605" y2="43.3979" gradientUnits="userSpaceOnUse">
<stop stop-color="#139959"/>
<stop offset="1" stop-color="#00361C"/>
</linearGradient>
</defs>
</svg>
