<svg width="374" height="64" viewBox="0 0 374 64" fill="none" xmlns="http://www.w3.org/2000/svg">
<g filter="url(#filter0_d)">
<path d="M149.65 17.1726L205.737 21.0905L258.25 29.8197L290.693 35.0435L321.592 41.9856L366.534 56.2136H7L51.9417 41.9856L110.335 33.1189L138.928 30.3696L151.575 25.6957L153.225 23.4962L111.709 15.523L114.459 14.1483L169.171 7L138.928 15.2481L149.65 17.1726Z" fill="white"/>
</g>
<path d="M242.304 20.6781L249.6 12.9249L270.844 9.479L277.496 17.4476L272.775 35.323L256.326 34.2233L244.229 28.1747L242.304 20.6781Z" fill="#C4C4C4"/>
<path d="M242.304 20.6781L249.6 12.9249L270.844 9.479L277.496 17.4476L272.775 35.323L256.326 34.2233L244.229 28.1747L242.304 20.6781Z" fill="url(#paint0_linear)"/>
<path d="M266.545 30.7305V21.1652L276.14 17.687L284.966 25.6601L283.042 34.1831L270.623 35.7123L266.545 30.7305Z" fill="#999999"/>
<path d="M266.545 30.7305V21.1652L276.14 17.687L284.966 25.6601L283.042 34.1831L270.623 35.7123L266.545 30.7305Z" fill="url(#paint1_linear)"/>
<path d="M119.407 30.1372L120.53 22.5313L126.831 20.197L132.627 25.5479L132.329 31.5119L128.205 33.1615L122.707 33.7114L119.407 30.1372Z" fill="url(#paint2_linear)"/>
<path d="M114.931 32.9493L113.909 25.1458L120.829 22.9463L123.531 26.1677L122.432 32.844L120.232 33.6688L114.931 32.9493Z" fill="url(#paint3_linear)"/>
<path d="M44.1567 43.228L41.7251 35.7966L28.618 26.727L20.1555 34.7685L18.5059 49.6151L20.9803 51.8146L40.5091 47.537L44.1567 43.228Z" fill="url(#paint4_linear)"/>
<path d="M47.9238 35.0984L51.2298 31.6342L60.8559 30.0946L63.8701 33.655L61.731 41.6419L54.2774 41.1505L48.7959 38.448L47.9238 35.0984Z" fill="url(#paint5_linear)"/>
<path d="M54.2822 41.5366L52.7958 35.3795L43.2307 28.3732L37.7587 31.3449L35.2001 42.6703L43.6379 45.9441L51.2778 45.3602L54.2822 41.5366Z" fill="url(#paint6_linear)"/>
<path d="M58.1335 45.4868L56.7428 41.2367L49.2468 36.0497L45.2693 37.8252L43.8522 45.407L50.3354 48.0075L56.0474 47.9511L58.1335 45.4868Z" fill="url(#paint7_linear)"/>
<path d="M58.1335 45.4868L56.7428 41.2367L49.2468 36.0497L45.2693 37.8252L43.8522 45.407L50.3354 48.0075L56.0474 47.9511L58.1335 45.4868Z" fill="url(#paint8_linear)"/>
<path d="M42.2268 43.6597L38.62 39.9316L28.1178 38.2747L24.8292 42.1063L27.163 50.7015L35.295 50.1727L41.2754 47.2643L42.2268 43.6597Z" fill="url(#paint9_linear)"/>
<path d="M116.197 33.8441L116.181 31.312L113.1 27.7104L110.698 28.3665L108.667 32.5401L111.651 34.5859L114.678 35.0574L116.197 33.8441Z" fill="url(#paint10_linear)"/>
<path d="M110.734 33.0874L110.582 31.3062L108.139 28.6019L106.429 28.9291L105.184 31.7502L107.469 33.3552L109.697 33.8557L110.734 33.0874Z" fill="url(#paint11_linear)"/>
<path d="M108.676 33.2316L107.614 31.4509L103.678 29.8455L102.048 31.036L102.17 34.5945L105.383 35.1324L107.976 34.5475L108.676 33.2316Z" fill="url(#paint12_linear)"/>
<path d="M233.712 12.4987L236.53 23.4962L229.932 22.9823L233.712 12.4987Z" fill="url(#paint13_linear)"/>
<path d="M237.011 14.1483L239.829 24.5959L233.231 24.1077L237.011 14.1483Z" fill="url(#paint14_linear)"/>
<path d="M348.252 24.5959L353.653 45.4911L341.006 44.5147L348.252 24.5959Z" fill="url(#paint15_linear)"/>
<path d="M312.899 16.3478L317.361 35.5933L306.914 34.694L312.899 16.3478Z" fill="url(#paint16_linear)"/>
<path d="M320.451 9.19946L329.524 39.4424L310.213 37.2429L320.451 9.19946Z" fill="url(#paint17_linear)"/>
<path d="M330.899 12.4987L337.982 44.3913L320.661 40.5422L330.899 12.4987Z" fill="url(#paint18_linear)"/>
<path d="M341.896 18.5473L349.529 47.9655L332.758 45.2161L341.896 18.5473Z" fill="url(#paint19_linear)"/>
<defs>
<filter id="filter0_d" x="0" y="0" width="373.534" height="63.2136" filterUnits="userSpaceOnUse" color-interpolation-filters="sRGB">
<feFlood flood-opacity="0" result="BackgroundImageFix"/>
<feColorMatrix in="SourceAlpha" type="matrix" values="0 0 0 0 0 0 0 0 0 0 0 0 0 0 0 0 0 0 127 0"/>
<feOffset/>
<feGaussianBlur stdDeviation="3.5"/>
<feColorMatrix type="matrix" values="0 0 0 0 1 0 0 0 0 1 0 0 0 0 1 0 0 0 1 0"/>
<feBlend mode="normal" in2="BackgroundImageFix" result="effect1_dropShadow"/>
<feBlend mode="normal" in="SourceGraphic" in2="effect1_dropShadow" result="shape"/>
</filter>
<linearGradient id="paint0_linear" x1="262.5" y1="18" x2="257.5" y2="33.5" gradientUnits="userSpaceOnUse">
<stop stop-color="#777777"/>
<stop offset="1" stop-color="#E3E3E3"/>
</linearGradient>
<linearGradient id="paint1_linear" x1="276" y1="27" x2="274.5" y2="35" gradientUnits="userSpaceOnUse">
<stop stop-color="#999999"/>
<stop offset="1" stop-color="#E9E9E9"/>
</linearGradient>
<linearGradient id="paint2_linear" x1="127.106" y1="30.3696" x2="116.07" y2="20.7296" gradientUnits="userSpaceOnUse">
<stop stop-color="#999999"/>
<stop offset="1" stop-color="white"/>
</linearGradient>
<linearGradient id="paint3_linear" x1="121.607" y1="31.7443" x2="115.28" y2="27.4811" gradientUnits="userSpaceOnUse">
<stop stop-color="#777777"/>
<stop offset="1" stop-color="#C4C4C4"/>
</linearGradient>
<linearGradient id="paint4_linear" x1="31.8583" y1="38.7231" x2="22.9881" y2="28.0066" gradientUnits="userSpaceOnUse">
<stop stop-color="#269F56"/>
<stop offset="1" stop-color="#8CE1AE"/>
</linearGradient>
<linearGradient id="paint5_linear" x1="58.0965" y1="38.0678" x2="50.4176" y2="29.9747" gradientUnits="userSpaceOnUse">
<stop stop-color="#269F56"/>
<stop offset="1" stop-color="#8CE1AE"/>
</linearGradient>
<linearGradient id="paint6_linear" x1="45.1065" y1="38.3466" x2="37.9173" y2="30.6159" gradientUnits="userSpaceOnUse">
<stop stop-color="#269F56"/>
<stop offset="1" stop-color="#8CE1AE"/>
</linearGradient>
<linearGradient id="paint7_linear" x1="51.0999" y1="42.9104" x2="46.027" y2="36.7815" gradientUnits="userSpaceOnUse">
<stop stop-color="#269F56"/>
<stop offset="1" stop-color="#8CE1AE"/>
</linearGradient>
<linearGradient id="paint8_linear" x1="54.5" y1="48" x2="52.5" y2="40.5" gradientUnits="userSpaceOnUse">
<stop stop-color="white"/>
<stop offset="1" stop-color="white" stop-opacity="0"/>
</linearGradient>
<linearGradient id="paint9_linear" x1="36.8825" y1="46.3102" x2="28.0571" y2="38.5193" gradientUnits="userSpaceOnUse">
<stop stop-color="#269F56"/>
<stop offset="1" stop-color="#8CE1AE"/>
</linearGradient>
<linearGradient id="paint10_linear" x1="112.917" y1="31.7634" x2="110.827" y2="28.0973" gradientUnits="userSpaceOnUse">
<stop stop-color="#269F56"/>
<stop offset="1" stop-color="#8CE1AE"/>
</linearGradient>
<linearGradient id="paint11_linear" x1="107.86" y1="30.3696" x2="106.837" y2="28.5858" gradientUnits="userSpaceOnUse">
<stop stop-color="#269F56"/>
<stop offset="1" stop-color="#8CE1AE"/>
</linearGradient>
<linearGradient id="paint12_linear" x1="106.76" y1="33.6688" x2="103.635" y2="29.9464" gradientUnits="userSpaceOnUse">
<stop stop-color="#269F56"/>
<stop offset="1" stop-color="#8CE1AE"/>
</linearGradient>
<linearGradient id="paint13_linear" x1="230.87" y1="12.7043" x2="235.736" y2="22.4205" gradientUnits="userSpaceOnUse">
<stop stop-color="#139959"/>
<stop offset="1" stop-color="#00361C"/>
</linearGradient>
<linearGradient id="paint14_linear" x1="234.169" y1="14.3436" x2="238.649" y2="23.7581" gradientUnits="userSpaceOnUse">
<stop stop-color="#139959"/>
<stop offset="1" stop-color="#00361C"/>
</linearGradient>
<linearGradient id="paint15_linear" x1="342.804" y1="24.9865" x2="352.002" y2="43.5116" gradientUnits="userSpaceOnUse">
<stop stop-color="#139959"/>
<stop offset="1" stop-color="#00361C"/>
</linearGradient>
<linearGradient id="paint16_linear" x1="308.399" y1="16.7075" x2="317.412" y2="32.9872" gradientUnits="userSpaceOnUse">
<stop stop-color="#139959"/>
<stop offset="1" stop-color="#00361C"/>
</linearGradient>
<linearGradient id="paint17_linear" x1="312.753" y1="9.74934" x2="325.675" y2="35.8683" gradientUnits="userSpaceOnUse">
<stop stop-color="#139959"/>
<stop offset="1" stop-color="#00361C"/>
</linearGradient>
<linearGradient id="paint18_linear" x1="323.201" y1="13.0486" x2="336.123" y2="39.1675" gradientUnits="userSpaceOnUse">
<stop stop-color="#139959"/>
<stop offset="1" stop-color="#00361C"/>
</linearGradient>
<linearGradient id="paint19_linear" x1="334.198" y1="19.0972" x2="347.12" y2="45.2161" gradientUnits="userSpaceOnUse">
<stop stop-color="#139959"/>
<stop offset="1" stop-color="#00361C"/>
</linearGradient>
</defs>
</svg>
