<svg width="15" height="20" viewBox="0 0 15 20" fill="none" xmlns="http://www.w3.org/2000/svg">
<path d="M12.4894 8.97771L10.9304 7.1419L11.2642 6.85845C11.8172 6.38881 11.8848 5.55979 11.4152 5.00675L10.2814 3.67162C9.81175 3.11858 8.98273 3.05097 8.42969 3.52061L8.09591 3.80406L6.53694 1.96825C6.14559 1.5074 5.45471 1.45106 4.99386 1.84242L4.32629 2.40932C4.14194 2.56587 4.11941 2.8422 4.27596 3.02655L11.0787 11.0374C11.2353 11.2217 11.5116 11.2442 11.696 11.0877L12.3635 10.5208C12.8244 10.1294 12.8807 9.43856 12.4894 8.97771ZM8.99659 4.18818C9.18059 4.03193 9.45757 4.05452 9.61383 4.23852L10.7476 5.57365C10.9039 5.75765 10.8813 6.03463 10.6973 6.19088L10.3635 6.47433L8.66281 4.47163L8.99659 4.18818Z" fill="#DB1010"/>
<path d="M0.619717 11.0231C0.54158 11.0231 0.479316 11.0884 0.483038 11.1664L0.844304 18.7487C0.877694 19.4504 1.45408 20 2.15636 20H8.80639C9.50866 20 10.085 19.4504 10.1184 18.7487L10.4797 11.1664C10.4834 11.0884 10.4212 11.0231 10.343 11.0231H0.619717ZM7.23296 12.1178C7.23296 11.8759 7.42892 11.6799 7.67086 11.6799C7.9128 11.6799 8.10876 11.8759 8.10876 12.1178V17.8105C8.10876 18.0524 7.9128 18.2484 7.67086 18.2484C7.42892 18.2484 7.23296 18.0524 7.23296 17.8105V12.1178ZM5.04347 12.1178C5.04347 11.8759 5.23943 11.6799 5.48137 11.6799C5.72331 11.6799 5.91927 11.8759 5.91927 12.1178V17.8105C5.91927 18.0524 5.72331 18.2484 5.48137 18.2484C5.23943 18.2484 5.04347 18.0524 5.04347 17.8105V12.1178ZM2.85398 12.1178C2.85398 11.8759 3.04994 11.6799 3.29188 11.6799C3.53382 11.6799 3.72978 11.8759 3.72978 12.1178V17.8105C3.72978 18.0524 3.53382 18.2484 3.29188 18.2484C3.04994 18.2484 2.85398 18.0524 2.85398 17.8105V12.1178Z" fill="#DB1010"/>
</svg>
