<svg width="13" height="21" viewBox="0 0 13 21" fill="none" xmlns="http://www.w3.org/2000/svg">
<path d="M10.2906 7.75159H7.88217V7.31369C7.88217 6.58815 7.29401 6 6.56847 6H4.81688C4.09134 6 3.50318 6.58815 3.50318 7.31369V7.75159H1.09475C0.490145 7.75159 0 8.24174 0 8.84634V9.72213C0 9.96399 0.196042 10.16 0.437898 10.16H10.9475C11.1893 10.16 11.3854 9.96399 11.3854 9.72213V8.84634C11.3854 8.24174 10.8952 7.75159 10.2906 7.75159ZM4.37898 7.31369C4.37898 7.0723 4.57549 6.8758 4.81688 6.8758H6.56847C6.80986 6.8758 7.00637 7.0723 7.00637 7.31369V7.75159H4.37898V7.31369Z" fill="#FFFFFF"/>
<path d="M0.831021 11.0358C0.752883 11.0358 0.69062 11.1011 0.694342 11.1792L1.05561 18.7614C1.089 19.4632 1.66538 20.0127 2.36766 20.0127H9.01769C9.71997 20.0127 10.2964 19.4632 10.3297 18.7614L10.691 11.1792C10.6947 11.1011 10.6325 11.0358 10.5543 11.0358H0.831021ZM7.44427 12.1306C7.44427 11.8886 7.64023 11.6927 7.88217 11.6927C8.1241 11.6927 8.32006 11.8886 8.32006 12.1306V17.8232C8.32006 18.0652 8.1241 18.2611 7.88217 18.2611C7.64023 18.2611 7.44427 18.0652 7.44427 17.8232V12.1306ZM5.25478 12.1306C5.25478 11.8886 5.45074 11.6927 5.69267 11.6927C5.93461 11.6927 6.13057 11.8886 6.13057 12.1306V17.8232C6.13057 18.0652 5.93461 18.2611 5.69267 18.2611C5.45074 18.2611 5.25478 18.0652 5.25478 17.8232V12.1306ZM3.06529 12.1306C3.06529 11.8886 3.26125 11.6927 3.50318 11.6927C3.74512 11.6927 3.94108 11.8886 3.94108 12.1306V17.8232C3.94108 18.0652 3.74512 18.2611 3.50318 18.2611C3.26125 18.2611 3.06529 18.0652 3.06529 17.8232V12.1306Z" fill="#FFFFFF"/>
</svg>
